<?xml version="1.0" standalone="no"?>
<!DOCTYPE svg PUBLIC "-//W3C//DTD SVG 20010904//EN"
 "http://www.w3.org/TR/2001/REC-SVG-20010904/DTD/svg10.dtd">
<svg version="1.0" xmlns="http://www.w3.org/2000/svg"
 width="300.000000pt" height="229.000000pt" viewBox="0 0 300.000000 229.000000"
 preserveAspectRatio="xMidYMid meet">
<metadata>
Created by potrace 1.10, written by Peter Selinger 2001-2011
</metadata>
<g transform="translate(0.000000,229.000000) scale(0.100000,-0.100000)"
fill="#000000" stroke="none">
<path d="M20 1147 c0 -618 2 -1126 4 -1128 2 -2 70 -3 150 -1 l146 3 2 417 3
417 255 7 c280 7 343 14 458 52 328 111 497 357 479 700 -10 198 -59 317 -177
437 -115 115 -241 172 -455 204 -75 11 -195 15 -482 15 l-383 0 0 -1123z m852
1067 c207 -28 338 -86 442 -194 245 -254 216 -741 -57 -946 -175 -131 -349
-173 -725 -174 l-194 0 -29 -29 -29 -29 0 -391 0 -391 -110 0 -110 0 0 1078
c0 593 3 1082 7 1085 3 4 161 7 349 7 257 0 372 -4 456 -16z"/>
<path d="M322 2064 c-7 -3 -19 -19 -27 -34 -13 -24 -15 -100 -15 -465 0 -446
1 -463 39 -492 25 -19 395 -17 506 2 266 47 430 238 429 500 -1 243 -123 403
-357 472 -39 12 -116 17 -307 19 -140 2 -261 1 -268 -2z m498 -44 c232 -36
361 -160 391 -376 30 -207 -65 -396 -238 -479 -103 -49 -151 -56 -410 -62
l-243 -5 0 466 0 466 218 0 c119 0 246 -5 282 -10z"/>
<path d="M2580 2069 c-182 -82 -226 -313 -85 -455 97 -98 239 -113 353 -36
179 120 162 391 -30 486 -67 34 -170 36 -238 5z m191 -31 c54 -16 112 -68 139
-125 19 -40 22 -60 18 -119 -4 -59 -10 -78 -37 -117 -107 -155 -337 -135 -417
37 -56 119 -1 262 120 317 47 21 121 24 177 7z"/>
<path d="M1351 722 c-194 -387 -350 -706 -348 -708 2 -2 319 -3 704 -2 l700 3
-352 705 -352 706 -352 -704z m670 -23 c169 -337 308 -622 308 -631 1 -17 -35
-18 -623 -18 -368 0 -627 4 -630 9 -9 13 614 1263 626 1259 6 -2 150 -281 319
-619z"/>
<path d="M2422 720 l3 -701 283 -2 282 -2 0 703 0 702 -285 0 -286 0 3 -700z
m526 -7 l2 -653 -22 -5 c-13 -3 -120 -4 -238 -3 l-215 3 -3 658 -2 657 237 -2
238 -3 3 -652z"/>
</g>
</svg>
